# xmcd CD database file
#
# Track frame offsets:
#	150
#	5963
#	23732
#	42338
#	64265
#	85166
#
# Disc length: 1353 seconds
#
# Revision: 0
# Processed by: cddbd v1.5.2PL0 Copyright (c) Steve Scherf et al.
# Submitted via: CDex 1.51
#
DISCID=48054706
DTITLE=Young Wicked - Vengeance
DYEAR=2017
DGENRE=Horrorcore
TTITLE0=Vendetta
TTITLE1=Vengeance
TTITLE2=BloodBath (feat. Twiztid)
TTITLE3=Scars
TTITLE4=Solo Ride
TTITLE5=Let It Go (feat. Bonez Dubb)
EXTD=YEAR: 2017
EXTT0=
EXTT1=
EXTT2=
EXTT3=
EXTT4=
EXTT5=
PLAYORDER=
